<svg xmlns="http://www.w3.org/2000/svg" width="468.332" height="468.415" viewBox="0 0 468.332 468.415">
  <path id="ppshv_icons" data-name="ppshv icons" d="M2013.408,8570.337c-2.5-.286-13.875-1.955-26.529-4.532-7.386-1.5-14-3.069-19.67-4.654a96.188,96.188,0,0,1-16.312-5.849c-5.81-2.895-16.9-9.033-25.871-17.6a51.908,51.908,0,0,1-9.488-11.793,27.561,27.561,0,0,1-3.844-13.168,33.256,33.256,0,0,1,1.712-11.062,36.149,36.149,0,0,1,4.375-8.737,56.426,56.426,0,0,1,10.137-10.929c.607-.531,1.129-.987,1.542-1.377,2.547-2.4,22.38-17.93,36.862-29.269l.049-.039c7.461-5.844,13.908-10.89,15-11.809l.217-.183a106.71,106.71,0,0,0,13.273-13.127c6.954-8.346,10.479-15.942,10.479-22.58,0-2.046-2.082-5.033-6.188-8.877a128.083,128.083,0,0,0-14.3-11.167c-10.286-7.09-22.554-14.11-27.351-15.647-.912-.293-1.589-.5-2.084-.654l-.041-.015a5.836,5.836,0,0,1-.847-.282,5.666,5.666,0,0,1,.635.088l.036.007c.639.105,1.71.281,3.136.458a74.159,74.159,0,0,0,9.008.553,58.7,58.7,0,0,0,23.266-4.433c4.022-1.728,4.844-6.516,5.713-11.585.71-4.143,1.445-8.423,4.069-10.965a12.381,12.381,0,0,1,8.606-3.235,14.073,14.073,0,0,1,4.7.794,12.566,12.566,0,0,1,4.145,2.388,12.347,12.347,0,0,1,4.082,9.636c0,19.425,0,36.741-.009,52.938-.015,46.813-.047,99.646-.1,157.041,0,3.271,0,5.13,0,5.354a3.783,3.783,0,0,1-2.089,3.162,9.71,9.71,0,0,1-4.945,1.228A12.328,12.328,0,0,1,2013.408,8570.337Zm-19.167-115.512c-1.129.953-7.8,6.192-15.588,12.288-11.43,8.95-32.7,25.608-35.507,28.11l-2.065,1.848a38.044,38.044,0,0,0-6.743,7.087,16.167,16.167,0,0,0-1.972,3.889,13.237,13.237,0,0,0-.673,4.42,7.974,7.974,0,0,0,1.265,3.614,31.967,31.967,0,0,0,5.874,7.151c7.341,7.006,17.123,12.245,20.986,14.17a75.735,75.735,0,0,0,12.781,4.489c5.2,1.454,11.344,2.905,18.272,4.314,3.872.789,7.6,1.486,10.952,2.078l.062-100.32C1998.487,8451.257,1995.653,8453.641,1994.242,8454.825Zm-293.252,115.589a3.6,3.6,0,0,1-1.716-.828c-.785-.662-1.719-1.993-1.719-4.577,0-4.966-.525-310.432-.531-313.481,0-.03-.295-2.927,1.28-4.685a4.357,4.357,0,0,1,3.4-1.342c4.469,0,92.069.058,92.626.06.194,0,4.743.064,4.743,5.655,0,8.913.484,92.437,2.091,95.355,1.379,2.469,4.607,8.253,16.945,10.584,6.831,1.248,17.741,2.885,30.375,4.777l.045.007c25.224,3.783,56.611,8.491,67.295,12.019h.028a4.7,4.7,0,0,1,.628.157,195.474,195.474,0,0,1,27.095,9.485c10,4.593,15.065,9.062,15.065,13.284,0,2.626-1.577,5.581-4.691,8.784a61.167,61.167,0,0,1-10.81,8.421,150.645,150.645,0,0,1-20.418,10.716,2.674,2.674,0,0,1-.258.107l-.058.023c-.065.026-.138.056-.213.088-1.116.435-3.136,1.188-6.33,2.379-14.721,5.5-49.193,18.362-80.366,32.133-.135.045-.275.109-.4.163-.062.03-.129.056-.2.086-21.487,9.528-37.374,17.7-47.221,24.3-17.846,11.968-24.591,27.379-27.108,38.2a63.938,63.938,0,0,0-1.641,15.34,40.322,40.322,0,0,0,.632,7.049c.277,1.211.615,2.624.972,4.119l0,.02c1.291,5.395,2.9,12.107,3.142,15.6a7.059,7.059,0,0,1,.032.809c0,.353-.03.68-.056,1l-.006.068a7.113,7.113,0,0,1-.406,1.592,2.668,2.668,0,0,1-.28.624,4,4,0,0,1-1.095,1.376l-.187.188a1.814,1.814,0,0,1-.4.344Zm16.545-20h22.838l-.243-1.023a57.274,57.274,0,0,1-1.192-11.419,84.121,84.121,0,0,1,2.16-20.212c3.33-14.332,12.185-34.684,35.455-50.29,10.95-7.335,27.383-15.829,50.453-26.059l1.159-.5c31.506-13.88,65.938-26.729,80.708-32.244l6.119-2.306a134.1,134.1,0,0,0,14.108-7.128c-4.452-1.692-9.815-3.465-15.981-5.271h-.508l-3.054-1.009c-9.064-2.994-42.121-7.95-64.036-11.239-12.895-1.934-24.028-3.608-31.123-4.9-21.533-4.069-28.428-16.431-30.747-20.589-2.327-4.222-4.351-7.9-4.556-90.671-17.125-.013-44.8-.029-62.047-.04C1717.136,8317.332,1717.448,8497.592,1717.534,8550.413Zm67.3,19.767-1.252-.013c-1.43-.011-2.377-.02-2.512-.02-.226,0-.357-.036-.4-.109-.032-.054-.024-.125.03-.234l.187-.189a4.833,4.833,0,0,0,.379-.342l.028-.028a4.291,4.291,0,0,0,.686-1c.073-.145.144-.306.217-.476l.062-.146a6.8,6.8,0,0,0,.4-1.594,10.5,10.5,0,0,0,.062-1.061,7.6,7.6,0,0,0-.03-.811c-.245-3.5-1.856-10.226-3.151-15.631-.355-1.483-.69-2.884-.968-4.093a40.163,40.163,0,0,1-.63-7.04,63.742,63.742,0,0,1,1.641-15.331,60.537,60.537,0,0,1,8.165-19.283,66.23,66.23,0,0,1,18.943-18.892c9.836-6.581,25.723-14.75,47.219-24.279.075-.029.151-.064.241-.1a2.931,2.931,0,0,1,.353-.145c31.13-13.738,65.6-26.6,80.321-32.089l.026-.011c3.02-1.127,5.2-1.94,6.347-2.386.1-.043.2-.079.269-.107l.041-.015c.088-.035.164-.065.226-.095a150.9,150.9,0,0,0,20.414-10.708,61.23,61.23,0,0,0,10.813-8.414c3.112-3.2,4.691-6.153,4.691-8.779,0-4.219-5.068-8.684-15.065-13.271a195.4,195.4,0,0,0-27.1-9.479l.05.008c2.284.486,14.314,3.108,26.781,6.89A149.38,149.38,0,0,1,1979.3,8387c5.394,2.4,8.853,4.69,10.277,6.8a16.156,16.156,0,0,1,2.359,4.856,8.775,8.775,0,0,1,.125,4.323c-.555,2.435-2.172,4.743-5.091,7.264a74.347,74.347,0,0,1-11.251,7.552c-14.684,8.528-83.259,42.332-109.416,54.68-.071.041-7.109,4.156-14.873,9.546-7.167,4.971-16.426,12.073-19.859,17.665-.592.962-1.213,1.928-1.813,2.863-2.79,4.34-5.949,9.257-7.769,15.895-2.368,8.707-1.888,19.782-1.03,24.716a57.882,57.882,0,0,0,1.594,5.709,111.6,111.6,0,0,1,3.089,11.453c.85,4.461.721,7.369-.4,8.886a3.039,3.039,0,0,1-2.6,1.2c-.695.013-1.749.015-3.229.015C1810.994,8570.412,1791.987,8570.242,1784.833,8570.18Zm14.228-43.586a43.522,43.522,0,0,0-1.123,10.456c.028,1.678.151,2.912.127,2.912l.925,3.906c.553,2.313,1.063,4.459,1.514,6.441l1.632.014c-.43-1.57-.742-2.874-.888-3.743a90.15,90.15,0,0,1,.039-26.826A41.509,41.509,0,0,0,1799.061,8526.594Zm36.483-66.989c31.16-13.748,65.609-26.6,80.319-32.082l.062-.024c2.979-1.111,5.13-1.912,6.268-2.354-5.2,2.136-23.922,9.563-45.6,18.164-13.312,5.278-28.4,11.262-41.046,16.3Zm245.064-111.341v-87.816c0-9.417,8.823-17.078,19.668-17.078h20.337c5.033,0,8.35-2.549,9.4-5.078a4.934,4.934,0,0,0-1.194-5.491l-91.6-100.245a12.006,12.006,0,0,0-16.392,0L1929.246,8232.8a4.936,4.936,0,0,0-1.2,5.489c.768,1.841,2.947,4.073,6.762,4.824l.4.082a14.253,14.253,0,0,0,2.241.174h20.345c10.851,0,19.678,7.661,19.678,17.078v87.816a9.818,9.818,0,0,1-3.717,7.6,11.92,11.92,0,0,1-7.522,2.6c-6.19,0-11.225-4.577-11.225-10.2v-77.582a6.052,6.052,0,0,0-2.839-4.806,11.916,11.916,0,0,0-6.932-2.1H1912.45c-8.393,0-15.656-4.411-18.5-11.233a15.215,15.215,0,0,1,3.072-16.477l15.981-17.5,21.466-23.485,79.146-86.636a21.665,21.665,0,0,1,30.844,0l116.593,127.616a15.236,15.236,0,0,1,3.082,16.477c-2.859,6.824-10.124,11.233-18.513,11.233h-41.226a2.252,2.252,0,0,0-1.321.372v84.117a9.813,9.813,0,0,1-3.719,7.6,11.914,11.914,0,0,1-7.52,2.6C2085.644,8358.466,2080.608,8353.889,2080.608,8348.264ZM2021.1,8315.91v-7.978a2.02,2.02,0,0,0-1.736-2.026,47.347,47.347,0,0,1-15.7-5.012,45.781,45.781,0,0,1-13.34-10.954,8.612,8.612,0,0,1-2-5.523,8.486,8.486,0,0,1,2.387-5.949,7.946,7.946,0,0,1,5.745-2.454,8.21,8.21,0,0,1,6.184,2.86,32.483,32.483,0,0,0,8.791,7.246,33.966,33.966,0,0,0,7.216,2.947,1.915,1.915,0,0,0,.493.066,2.013,2.013,0,0,0,1.959-2.057v-29.912a2.039,2.039,0,0,0-1.514-1.983l-5.2-1.243a52.337,52.337,0,0,1-16.093-6,26.7,26.7,0,0,1-9.567-9.621,28.057,28.057,0,0,1-3.209-13.873,34.231,34.231,0,0,1,1.355-9.776,29.015,29.015,0,0,1,4.078-8.407,32.8,32.8,0,0,1,6.451-6.836,38.31,38.31,0,0,1,8.5-5.055,49.84,49.84,0,0,1,13.525-3.628,1.986,1.986,0,0,0,1.671-2.016v-8.221a7.283,7.283,0,0,1,2.052-5.1,6.878,6.878,0,0,1,4.969-2.119,7.138,7.138,0,0,1,7.033,7.223v8.251a2.04,2.04,0,0,0,1.762,2.026,58.2,58.2,0,0,1,10.937,2.438,50.529,50.529,0,0,1,22.513,14.578,8.774,8.774,0,0,1,2.185,5.831,8.973,8.973,0,0,1-2.265,5.976,8.487,8.487,0,0,1-2.912,2.136,8.259,8.259,0,0,1-3.371.712,8.46,8.46,0,0,1-6.3-2.856,39.592,39.592,0,0,0-3.555-3.506,38.184,38.184,0,0,0-12.381-7.151,40.553,40.553,0,0,0-4.222-1.261,1.906,1.906,0,0,0-.447-.054,2,2,0,0,0-1.944,2.048v29.383a2.03,2.03,0,0,0,1.495,1.983l5.08,1.273c9.41,2.207,16.613,5.835,21.408,10.789a25.15,25.15,0,0,1,5.448,8.42,28.254,28.254,0,0,1,1.817,10.271,33.591,33.591,0,0,1-1.267,9.281,31.677,31.677,0,0,1-3.809,8.365,32.642,32.642,0,0,1-6.175,7.078,39.015,39.015,0,0,1-8.356,5.436,45.836,45.836,0,0,1-13.888,4.033,2.025,2.025,0,0,0-1.753,2.026v7.9a7.284,7.284,0,0,1-2.052,5.1,6.925,6.925,0,0,1-4.981,2.121A7.131,7.131,0,0,1,2021.1,8315.91Zm14.054-28.086a1.986,1.986,0,0,0,1.921,2.043,1.776,1.776,0,0,0,.351-.034,23.247,23.247,0,0,0,4.979-1.549,16.788,16.788,0,0,0,7.341-5.758,14.282,14.282,0,0,0,2.37-8.109,13.247,13.247,0,0,0-3.424-9.182c-2.243-2.484-6.8-4.605-13.538-6.3Zm-16.36-80.706a24.605,24.605,0,0,0-8.943,3.435,13.21,13.21,0,0,0-6.227,11.8,11.394,11.394,0,0,0,3.579,8.793,18.832,18.832,0,0,0,4.655,3.007,40.035,40.035,0,0,0,6.821,2.387,1.931,1.931,0,0,0,.471.059,2,2,0,0,0,1.951-2.032v-25.437a2.007,2.007,0,0,0-1.957-2.05A1.772,1.772,0,0,0,2018.8,8207.118Z" transform="translate(-1697 -8102)" fill="#fff"/>
</svg>
