<svg id="Layer_1" data-name="Layer 1" xmlns="http://www.w3.org/2000/svg" viewBox="0 0 567.55 567.55"><defs><style>.cls-1{fill:#00aeef;fill-rule:evenodd;opacity:0.36;}</style></defs><path class="cls-1" d="M532.08,496.61a35.57,35.57,0,0,1-35.47,35.47h-91.7L274.2,399.59,425.48,248.13,531.9,354.54V496.43h0ZM70.94,532.08a35.46,35.46,0,0,1-35.47-35.47V479.93L176.3,353.73,354.54,532h-284ZM141.89,70.94a70.95,70.95,0,1,1-70.95,70.95,71,71,0,0,1,70.95-70.95ZM496.61,0H70.94A70.93,70.93,0,0,0,0,70.94V496.61a71,71,0,0,0,70.94,70.94H496.61a71.15,71.15,0,0,0,70.94-70.94V70.94A71,71,0,0,0,496.61,0ZM141.89,177.36a35.47,35.47,0,1,0-35.47-35.47,35.57,35.57,0,0,0,35.47,35.47Z"/></svg>