<svg viewBox="0 0 24 24" xmlns="http://www.w3.org/2000/svg"><g><path d="M13.46 15.53l1.5 1.5c.29.29.76.29 1.06 0 .29-.3.29-.77 0-1.07l-1.5-1.5c-.3-.3-.77-.3-1.07 0 -.3.29-.3.76 0 1.06Z"/><path d="M7.75 12.5c0 2.07 1.67 3.75 3.75 3.75 1 0 1.95-.41 2.65-1.11 .69-.7 1.09-1.65 1.09-2.65 0-2.08-1.68-3.75-3.75-3.75 -2.08 0-3.75 1.67-3.75 3.75Zm1.5 0c0-1.25 1-2.25 2.25-2.25 1.24 0 2.25 1 2.25 2.25 0 .6-.24 1.16-.66 1.58 -.42.42-.99.66-1.6.66 -1.25 0-2.25-1.01-2.25-2.25Z"/><path d="M4.75 21.4V2.6c0 .08-.07.15-.15.15h11.65c-.04 0-.08-.02-.11-.05l3.14 3.14c-.03-.03-.05-.07-.05-.11v15.65c0-.09.06-.15.15-.15H4.58c.08 0 .15.06.15.15Zm-1.5 0c0 .74.6 1.35 1.35 1.35h14.8c.74 0 1.35-.61 1.35-1.35V5.74c0-.36-.15-.71-.4-.96L17.2 1.63c-.26-.26-.6-.4-.96-.4H4.58c-.75 0-1.35.6-1.35 1.35v18.8Z"/><path d="M16 5.4V2.35c0-.2.15-.36.35-.36 .09 0 .18.03.25.1l3.29 3.29c.06.06.1.15.1.25 0 .19-.16.35-.36.35h-3.05c-.34 0-.6-.27-.6-.6Z"/><path d="M16.75 5.4V2.35c0 .21-.18.39-.4.39 -.11 0-.21-.05-.28-.12l3.29 3.29c-.08-.08-.12-.18-.12-.29 0-.22.17-.4.39-.4h-3.05c.08 0 .15.06.15.15Zm-1.5 0c0 .74.6 1.35 1.35 1.35h3.04c.6 0 1.1-.5 1.1-1.11 0-.3-.12-.58-.33-.79l-3.3-3.3c-.21-.21-.49-.33-.79-.33 -.61 0-1.11.49-1.11 1.1v3.04Z"/></g></svg>