<svg xmlns="http://www.w3.org/2000/svg" width="348.837" height="350.002" viewBox="0 0 348.837 350.002">
  <path id="inspection_penalty" data-name="inspection penalty" d="M1867.19,8452c-20.624,0-33.266-22.394-22.472-39.8l76.114-122.746a26.5,26.5,0,0,1,44.946,0l76.116,122.746c10.795,17.408-1.85,39.8-22.474,39.8Zm63.841-156.225-76.114,122.746a13.673,13.673,0,0,0-.339,14.127,14.228,14.228,0,0,0,12.613,7.35h152.23a14.226,14.226,0,0,0,12.612-7.35,13.666,13.666,0,0,0-.337-14.127l-76.116-122.746a14.5,14.5,0,0,0-24.548,0ZM1714.394,8452A17.513,17.513,0,0,1,1697,8434.439v-22.211c0-.029,0-.06,0-.091v-24.6c0-.619,0-1.351.036-2.076a2.789,2.789,0,0,1,.059-.467l.044-1.658c.034-.689.076-1.489.149-2.264l.083-1.169a82.57,82.57,0,0,1,1.862-11.581c.316-1.424.677-2.785,1.069-4.048.193-.755.475-1.616.7-2.28l.433-1.213c.24-.657.492-1.3.793-2.02.261-.632.448-1.077.666-1.506l.278-.63.2-.416a7.636,7.636,0,0,1-.138-.916c-.006-.09-.042-.72-.042-.8v-9.161a2.713,2.713,0,0,1,2.709-2.709h9.3l1.587-1.075,1.453-.908c1.243-.738,2.516-1.453,3.784-2.125l.165-.376-1.188-1.193h-11a7.433,7.433,0,0,1-.006-14.865h9.253a7.382,7.382,0,0,1,4.785,1.775,7.468,7.468,0,0,1,2.5,4.389l12.044-27.434a17.534,17.534,0,0,1,2.338-2.791c5.943-5.462,18.072-10.3,34.153-13.609a312.041,312.041,0,0,1,112.692-.013,134.136,134.136,0,0,1,18.615,5.124c-.038.06-.076.121-.115.183l-5.827,9.395a121.589,121.589,0,0,0-16.244-4.626,280.592,280.592,0,0,0-105.6.013c-14.241,3.071-25.159,7.509-29.951,12.176a15.185,15.185,0,0,0-1.489,1.65l-1.4,3.644-6.584,15.748,1.64-.532c.066-.021,1.063-.34,1.137-.354l.745-.215,1.09-.343a3.133,3.133,0,0,1,.363-.083c.057-.015.115-.032.176-.051a3.745,3.745,0,0,1,.768-.219,4.029,4.029,0,0,1,.9-.206l.025,0a4.026,4.026,0,0,1,1.039-.25l.5-.215.074-.019.021-.007c.462-.129.94-.261,1.408-.36l.859-.233a6.631,6.631,0,0,0,.791-.2l.019-.007,1.476-.384c4.291-1.042,7.969-1.842,11.925-2.6.7-.148,1.521-.3,2.437-.452.009,0,.812-.129.819-.131l1.092-.2.045-.009c.976-.178,2.083-.382,3.29-.564l1.5-.212,5.2-.834,3.948-.485c6.54-.872,13.455-1.565,21.142-2.117l.829-.053c.006,0,.986-.058.995-.06l1.568-.11c.064-.006.9-.006.938-.006,1.165-.079,2.365-.141,3.776-.193.04,0,1.154-.06,1.228-.062l7.8-.27c.882-.025,1.8-.038,2.73-.038.8-.025,1.739-.025,2.643-.025.7-.032,1.487-.034,2.369-.034.834-.047,1.816-.051,2.919-.051.908,0,2.034,0,3.093.053h.231c.647,0,1.381,0,2.13.034.216,0,.443,0,.679,0,.7,0,1.345.011,1.92.027.132,0,.263,0,.4,0,.776,0,1.584.021,2.274.038.131,0,.664.068.789.092l1.207-.009,2.019.027c1.2.089,2.308.136,3.7.157.087,0,1.035.06,1.116.065l3.761.183c.076-.007.172-.013.263-.013h.072c.153,0,.8.034.946.06l1.4.087c.008,0,.127.009.278.015l.066.007.159.008c.235.013.46.027.469.03.064,0,.817,0,.872.006,5.04.316,9.577.791,13.221,1.173l1.23.139.151.01.172.013c.337.028.8.064.827.068l9.371,1.186,3.585.545-5.488,8.848a.34.34,0,0,1-.053-.011l-.793-.1-7.273-.921-2.3-.216c-4.333-.458-8.72-.84-13.037-1.129l-3.362-.256c-.015,0-.083,0-.2,0-.233,0-.6,0-.649,0l-3.737-.178-1.122-.049-3.748-.134-.093,0c-1.3-.049-2.649-.1-3.952-.1l-1.054-.016-1.092-.053-3.1,0-2.388-.047h-5.863c-.189,0-.371-.008-.552-.008-.469,0-.984.017-1.722.053l-2.753,0-6.546.174-3.742.157h-.774l-1.184.07-3.091.169c-.083.007-.161.009-.24.009l-.11,0a4.454,4.454,0,0,1-.6.062l-3.2.212c-6.327.412-13.293,1.095-20.7,2.03-1.262.159-2.611.331-3.918.523l-4.5.666-.083.013c-.965.134-1.515.206-1.584.206,0,0,.008.009.006.011a2.576,2.576,0,0,1-.861.121l-3.962.733c-.933.155-1.943.327-3.1.592-3.716.694-7.369,1.471-11.168,2.374l-1.173.288s-.747.213-.757.217l-1.911.483a7.045,7.045,0,0,0-.912.246l-2.361.632-1.584.469c-.388.134-.849.255-1.167.331a138.591,138.591,0,0,0-15,5.405,11.643,11.643,0,0,1-1.105.5c-.42.181-.931.421-1.657.772a21.207,21.207,0,0,1,11,5.462c.028.03.511.581.541.622a8.9,8.9,0,0,1,2.108,5.56,9.531,9.531,0,0,1-3.714,7.324,2.74,2.74,0,0,1-1.215.52,2.667,2.667,0,0,1-.761.11,2.785,2.785,0,0,1-.325-.02,45.661,45.661,0,0,0-5.333-.313l-1.557-.043a26.539,26.539,0,0,0-10.939,2.391c-.3.145-.552.27-.787.391l-.019.011-.081.045a2.844,2.844,0,0,1-.479.205,2.676,2.676,0,0,1-1.729.066,17.733,17.733,0,0,1-6.276-3.32c-.136.342-.25.643-.348.917l-.426,1.2c-.208.615-.426,1.272-.607,1.971-.38,1.228-.7,2.427-.995,3.771a76.927,76.927,0,0,0-1.746,10.848c0,.019-.017.227-.045.621l-.009.127c-.017.242-.032.448-.034.467-.066.669-.1,1.364-.129,1.979l-.053,2.049a2.709,2.709,0,0,1-.068.561c-.013.445-.013.907-.013,1.354v24.133a2.626,2.626,0,0,1,.021.329v.06c0,.025,0,.049,0,.074v.021a16.658,16.658,0,0,0,16.055,16.561l1.8-.053,4.726.013a2.951,2.951,0,0,1,.49-.112,778.011,778.011,0,0,1,101.178-7.268,24.866,24.866,0,0,0-.416,4.382c0,.344,0,.692.017,1.035-15.869.106-32,.722-47.934,1.827h48.068a25.567,25.567,0,0,0,1.292,5.674h-86.058v.219A17.544,17.544,0,0,1,1724.24,8452Zm-11.976-17.565a12.087,12.087,0,0,0,11.976,12.147h9.847a12.113,12.113,0,0,0,12-12.154v-.212h-15.215c-.414,0-.793-.017-1.192-.053.006,0,.011.008.009.011a3.715,3.715,0,0,1-.874.042h-.051l-.123,0-.431,0h-.008a21.693,21.693,0,0,1-15.938-7.485Zm19.086-86.544a22.8,22.8,0,0,0-2.478.142l-10.415.015v6.455a1.832,1.832,0,0,1,.051.183,1.957,1.957,0,0,1,.284.5,3.573,3.573,0,0,0,.5.93c.042.046.3.388.494.636l.051.068c.066.087.117.15.131.172a12.126,12.126,0,0,0,3.752,2.431,1.09,1.09,0,0,1,.108-.051l.04-.02a31.511,31.511,0,0,1,13.34-2.984c.56,0,1.124.013,1.678.045.1,0,.2,0,.295,0,1.292,0,2.719.072,4.242.217a4.16,4.16,0,0,0,.9-2.393,3.372,3.372,0,0,0-.8-2,16,16,0,0,0-10.975-4.346Zm-13.495-18.356a2.016,2.016,0,0,0,2,2h11.21v-2.009a2.007,2.007,0,0,0-1.988-2.021H1710A2.016,2.016,0,0,0,1708.009,8329.535ZM1940.837,8428a14,14,0,1,1,0-28h4a14,14,0,1,1,0,28Zm-2-14a2,2,0,0,0,2,2h4a2,2,0,1,0,0-4h-4A2,2,0,0,0,1938.837,8414Zm-111.58,4.908h-29.34c-5.133,0-9.153-3.156-9.153-7.185v-15.05c0-4.036,4.02-7.2,9.153-7.2H1844.4l-3.36,5.416h-43.121c-2.318,0-3.738,1.155-3.738,1.783v15.05c0,.626,1.419,1.771,3.738,1.771h31.618a25.674,25.674,0,0,0-2.276,5.413Zm-107.624-1.678a9.35,9.35,0,0,1-9.03-6.081l-.4-8.354.558-2.821a9.536,9.536,0,0,1,8.869-5.721h18.361l18.883,2.847c4.393.688,7.617,3.973,7.84,7.99a8.414,8.414,0,0,1-.161,2.047l-1.114,5.422a2.8,2.8,0,0,1-.535,1.142,9.76,9.76,0,0,1-7.619,3.529Zm0-17.563a4.15,4.15,0,0,0-3.784,2.083l-.3,1.563.329,6.892a4.837,4.837,0,0,0,3.765,1.605h35.642a4.481,4.481,0,0,0,3-1.079l.984-4.777a3.531,3.531,0,0,0-3.218-3.5l-18.467-2.814Zm207.2-20.666v-53a16,16,0,0,1,32,0v53a16,16,0,0,1-32,0Zm12-53v53a4,4,0,1,0,8,0v-53a4,4,0,1,0-8,0Zm-115.125,57.7a2.707,2.707,0,0,1-2.643-2.651c-.068-3.352-6.342-8.22-19.956-10.981a2.618,2.618,0,0,1-.437-.129,98.146,98.146,0,0,0-19.231-1.893h-1.6a2.713,2.713,0,0,1-.583.063l-2.111.032c-.055,0-.14,0-.25,0a5.255,5.255,0,0,1-.918-.058,6.162,6.162,0,0,1-4.756-6.106,6.26,6.26,0,0,1,2.386-4.921c.11-.09.577-.376.7-.441,5.241-2.977,13.3-5.449,23.31-7.155a205.272,205.272,0,0,1,33.7-2.594,197.128,197.128,0,0,1,37.468,3.273l-3.074,4.957a196.068,196.068,0,0,0-34.395-2.813c-23.322,0-44.534,3.481-54.039,8.867,0,.011-.123.178-.32.445-.167.229-.318.435-.32.445a.8.8,0,0,0,.594.774l.935-.123h.405c11.558-4.883,31.3-7.8,52.8-7.8a204.656,204.656,0,0,1,32.912,2.5l-3.184,5.14a206.914,206.914,0,0,0-29.743-2.06,195.934,195.934,0,0,0-35.894,3.1c2.164.292,4.314.655,6.4,1.073a225.141,225.141,0,0,1,58.006-.13l-4.378,7.06c-10.131,3.026-13.777,6.985-13.819,9.454a2.7,2.7,0,0,1-2.641,2.664c-2.7.065-5.135.123-7.657.123S1826.411,8383.769,1823.713,8383.7Zm-7.751-14.641a26.465,26.465,0,0,1,6.631,4.26,12.1,12.1,0,0,1,3.445,5.017c1.748.038,3.54.06,5.324.06s3.566-.021,5.337-.06a12.064,12.064,0,0,1,3.438-5.017,26.318,26.318,0,0,1,6.631-4.26c-5.087-.449-10.271-.681-15.4-.681S1821.057,8368.613,1815.962,8369.063Zm52.722-108.777,0-.007v-6.113a1.872,1.872,0,0,0-1.629-1.868,42.618,42.618,0,0,1-8.043-1.795,37.06,37.06,0,0,1-16.537-10.705,6.126,6.126,0,0,1-1.525-4.079,6.293,6.293,0,0,1,1.584-4.184,5.834,5.834,0,0,1,8.228-.545,5.9,5.9,0,0,1,.549.554,29.5,29.5,0,0,0,2.671,2.63,28.505,28.505,0,0,0,9.3,5.373,30.786,30.786,0,0,0,3.169.948,1.84,1.84,0,0,0,2.191-1.4,1.758,1.758,0,0,0,.04-.435v-21.793a1.878,1.878,0,0,0-1.385-1.835l-3.774-.943c-6.943-1.627-12.19-4.281-15.7-7.9a18.794,18.794,0,0,1-5.286-13.605,23.338,23.338,0,0,1,3.708-12.884,25.647,25.647,0,0,1,10.627-9.149,33.415,33.415,0,0,1,10.19-2.959,1.882,1.882,0,0,0,1.62-1.869v-5.859a5.052,5.052,0,0,1,1.417-3.525,4.78,4.78,0,0,1,3.428-1.461,4.913,4.913,0,0,1,4.836,4.987v5.918a1.874,1.874,0,0,0,1.608,1.869,34.638,34.638,0,0,1,11.522,3.676,33.469,33.469,0,0,1,9.783,8.037,6.025,6.025,0,0,1-.274,8.014,5.589,5.589,0,0,1-7.9.134,5.241,5.241,0,0,1-.395-.42,24.432,24.432,0,0,0-6.62-5.458,25.359,25.359,0,0,0-5.43-2.216,1.845,1.845,0,0,0-2.291,1.833v22.188a1.875,1.875,0,0,0,1.408,1.834l3.86.921a38.316,38.316,0,0,1,11.826,4.4,19.386,19.386,0,0,1,6.966,7,20.369,20.369,0,0,1,2.333,10.109,22.434,22.434,0,0,1-3.962,13.272,25.459,25.459,0,0,1-10.937,8.694,36.435,36.435,0,0,1-9.931,2.665,1.845,1.845,0,0,0-1.565,1.857v6.1a5.039,5.039,0,0,1-1.417,3.527,4.747,4.747,0,0,1-3.419,1.462A4.92,4.92,0,0,1,1868.683,8260.285Zm9.679-21.231a1.852,1.852,0,0,0,1.818,1.886,1.714,1.714,0,0,0,.333-.025,18.469,18.469,0,0,0,6.769-2.6,10.1,10.1,0,0,0,4.785-9.063,8.765,8.765,0,0,0-2.777-6.794,14.288,14.288,0,0,0-3.542-2.293,29.758,29.758,0,0,0-5.123-1.795,1.816,1.816,0,0,0-2.261,1.824l0,0Zm-15.582-59.047a12.763,12.763,0,0,0-5.6,4.4,10.931,10.931,0,0,0-1.82,6.222,10.165,10.165,0,0,0,2.635,7.06q2.644,2.93,10.555,4.865l.131.038v-21.9a1.852,1.852,0,0,0-1.794-1.886,1.471,1.471,0,0,0-.331.038v0A17.694,17.694,0,0,0,1862.78,8180.007Zm51.307,83.417h0a6.917,6.917,0,0,1-2.62-5.354v-38.924c0-6.779,6.376-12.3,14.224-12.3h15.088a10.531,10.531,0,0,0,2.034-.191v0a7.071,7.071,0,0,0,5.286-3.8,4.013,4.013,0,0,0-.961-4.466l-4.421-4.834-63.51-69.515a9.272,9.272,0,0,0-12.706,0l-67.935,74.349a4.007,4.007,0,0,0-.954,4.466c.827,1.989,3.413,3.994,7.318,3.994h15.082c7.84,0,14.218,5.517,14.218,12.3v38.924c0,3.969-3.568,7.2-7.957,7.2a8.478,8.478,0,0,1-5.345-1.846,6.924,6.924,0,0,1-2.62-5.354v-36.342a1.837,1.837,0,0,0-1.351-.488h-30.573c-6.071,0-11.327-3.175-13.389-8.1a10.945,10.945,0,0,1,2.217-11.828l86.474-94.648a15.7,15.7,0,0,1,22.2-.134c.042.045.087.089.131.134l58.706,64.259,15.919,17.419,11.853,12.976a10.923,10.923,0,0,1,2.208,11.825c-2.055,4.928-7.31,8.105-13.38,8.105H1935c-4.13,0-7.617,2.514-7.617,5.491v31.336c0,3.967-3.568,7.2-7.957,7.2h-.065A8.455,8.455,0,0,1,1914.087,8263.424Z" transform="translate(-1697 -8101.999)" fill="#fff"/>
</svg>
