<svg xmlns="http://www.w3.org/2000/svg" width="467.908" height="467.923" viewBox="0 0 467.908 467.923">
  <path id="Chheak_Icon" data-name="Chheak Icon" d="M213.47,467.913a66.728,66.728,0,0,1-21.983-3.4,45.335,45.335,0,0,1-16.75-10.316,43.891,43.891,0,0,1-10.575-16.629,64.254,64.254,0,0,1-3.525-22.072V404.529a1.233,1.233,0,0,1,1.092-1.359h31.8a1.25,1.25,0,0,1,1.093,1.359V415.5a21.721,21.721,0,0,0,4.97,15.269,20.092,20.092,0,0,0,27.788,0,21.814,21.814,0,0,0,4.97-15.269V218.189c0-7.674-1.49-13.47-4.446-17.228s-7.554-5.661-13.729-5.661h-44.8a1.253,1.253,0,0,1-1.1-1.361V160.466c0-2.721-.875-3.812-3.065-3.812h-6.5a1.255,1.255,0,0,1-1.1-1.361V131.617a1.255,1.255,0,0,1,1.1-1.361h23.667c5.54,0,9.679,1.717,12.285,5.035,2.583,3.349,3.9,8.491,3.9,15.376v15.079h24.194a56.978,56.978,0,0,1,19.269,2.966,33.213,33.213,0,0,1,13.621,9.064,39.2,39.2,0,0,1,8.035,15.458,79.519,79.519,0,0,1,2.65,21.771V415.5a64.316,64.316,0,0,1-3.525,22.071,43.927,43.927,0,0,1-10.575,16.63,45.335,45.335,0,0,1-16.75,10.316,67.083,67.083,0,0,1-21.037,3.409c-.334,0-.657-.006-.98-.01m-46.881-75.574c-7.926,0-14.144-1.878-18.479-5.58a81.132,81.132,0,0,1-12.262-13.334l-.045-.055a44.218,44.218,0,0,0-6.2-7.7,14.917,14.917,0,0,0-4.641-3.1,15.734,15.734,0,0,0-5.254-.815h-1.467v27.487a1.238,1.238,0,0,1-1.095,1.36H89.074a.952.952,0,0,1-.787-.409,67.234,67.234,0,0,1-9.261-16.357,53.009,53.009,0,0,1-3.592-19.512A31.013,31.013,0,0,1,77.8,341.232a17.615,17.615,0,0,1,6.459-7.347V277.3a22.472,22.472,0,0,0-1.686-9.663,16.586,16.586,0,0,0-4.97-5.907,1.415,1.415,0,0,1-.525-1.139V245.865c0-10.53,2.3-18.531,6.831-23.783,4.553-5.255,11.036-7.865,19.312-7.865H194.44a1.239,1.239,0,0,1,1.1,1.361v30.86a1.237,1.237,0,0,1-1.1,1.361H112.747a5.435,5.435,0,0,0-3.089,1.009c-.964.626-1.159,2.667-1.159,4.271v1.28a28.043,28.043,0,0,1,6.874,8.192,31.515,31.515,0,0,1,2.869,15.05v55.762h2.168a36.126,36.126,0,0,1,10.356,1.334,24.092,24.092,0,0,1,8.1,4.22,33.936,33.936,0,0,1,6.723,7.293c2.3,3.048,4.355,5.689,6.108,7.892a6.349,6.349,0,0,0,4.684,2.91,3.681,3.681,0,0,0,3.153-1.334,7.228,7.228,0,0,0,1.073-4.514V316.818a20.408,20.408,0,0,1-11.21-5.88c-4.1-4.272-6.2-11.022-6.2-20.059,0-9.225,2.189-16.219,6.547-20.817,4.291-4.517,10.969-6.8,19.86-6.8,8.362,0,14.647,1.522,18.654,4.516,4.183,3.048,6.614,8.737,6.351,14.75v76.745c0,11.924-2.695,20.523-7.971,25.584a28.2,28.2,0,0,1-18.781,7.514c-.416,0-.842-.013-1.268-.032M156.913,290.58c0,9.718,4.751,11.759,8.758,11.759a1.269,1.269,0,0,0,1.1-1.361V279.912a1.251,1.251,0,0,0-1.1-1.359C161.664,278.553,156.913,280.622,156.913,290.58ZM15.266,387.658c-4.05-3.1-6.437-8.682-6.2-14.56V277.3a17.574,17.574,0,0,0-2.192-9.635A15.47,15.47,0,0,0,.7,262.41a1.375,1.375,0,0,1-.7-1.249V243.55C0,234,1.95,226.65,5.761,221.7c3.831-4.953,9.524-7.482,16.925-7.482H46.355a1.237,1.237,0,0,1,1.1,1.361v30.86a1.237,1.237,0,0,1-1.1,1.361H32.188c-1.641,0-3.306.572-3.306,4.708v1.66a23.143,23.143,0,0,1,14.167,24v59.71a18.96,18.96,0,0,1,10.072,5.935c3.94,4.463,5.934,11.429,5.934,20.628,0,9.171-2.211,16.247-6.59,20.929-4.314,4.626-10.818,6.967-19.336,6.967-7.9.006-13.925-1.573-17.863-4.675m20.5-33.911v21.936a1.236,1.236,0,0,0,1.095,1.359c3.985,0,8.758-2.148,8.758-12.326s-4.773-12.33-8.758-12.33a1.256,1.256,0,0,0-1.095,1.361M375.175,390.6a1.252,1.252,0,0,1-1.1-1.36V318.56c0-8.218-1.906-14.589-5.693-18.916a20.665,20.665,0,0,0-15.722-6.829,20.448,20.448,0,0,0-15.393,6.857c-3.854,4.327-5.8,10.67-5.8,18.888v70.677a1.237,1.237,0,0,1-1.095,1.36H298.584a1.252,1.252,0,0,1-1.1-1.36V318.56a73.458,73.458,0,0,1,3.7-24.087,47.184,47.184,0,0,1,28.6-29.309,66.8,66.8,0,0,1,22.882-3.919h.021a68.586,68.586,0,0,1,23.19,3.892A46.86,46.86,0,0,1,404.4,294.473a73.29,73.29,0,0,1,3.68,24.087v70.677a1.252,1.252,0,0,1-1.1,1.36Zm16.836-112.1c9.2,9.416,13.883,22.887,13.883,40.061,0-17.174-4.687-30.645-13.883-40.061-9.261-9.446-22.508-14.344-39.347-14.533,16.84.191,30.087,5.091,39.348,14.535Zm-94.349-30.7a1.236,1.236,0,0,1-1.1-1.36h0V215.574a1.237,1.237,0,0,1,1.1-1.361H407.9a1.239,1.239,0,0,1,1.1,1.361v30.862a1.237,1.237,0,0,1-1.1,1.361ZM399.824,184.8a7.918,7.918,0,0,1-3-6.128V134.115c0-7.762,7.3-14.077,16.286-14.077h17.273a12.194,12.194,0,0,0,2.327-.218v0a8.085,8.085,0,0,0,6.052-4.35,4.591,4.591,0,0,0-1.1-5.112l-5.06-5.534L359.894,25.235a10.613,10.613,0,0,0-14.546,0l-77.775,85.118a4.584,4.584,0,0,0-1.093,5.112c.948,2.278,3.908,4.573,8.377,4.573h17.267c8.975,0,16.277,6.315,16.277,14.077v44.562c0,4.541-4.084,8.24-9.109,8.24a9.7,9.7,0,0,1-6.119-2.112,7.924,7.924,0,0,1-3-6.128V137.07a2.093,2.093,0,0,0-1.547-.557h-35c-6.949,0-12.967-3.637-15.329-9.277a12.533,12.533,0,0,1,2.538-13.539l99-108.358a17.967,17.967,0,0,1,25.409-.152c.051.05.1.1.151.152L432.6,78.9,450.83,98.847,464.4,113.7a12.506,12.506,0,0,1,2.529,13.539c-2.353,5.64-8.368,9.277-15.318,9.277H423.772c-4.729,0-8.721,2.878-8.721,6.289v35.875c0,4.541-4.084,8.24-9.108,8.24a9.685,9.685,0,0,1-6.117-2.117Zm-51.98-3.6v-7a2.147,2.147,0,0,0-1.865-2.14,48.715,48.715,0,0,1-9.21-2.052,42.472,42.472,0,0,1-18.931-12.257,7.013,7.013,0,0,1-1.746-4.67,7.2,7.2,0,0,1,1.815-4.789,6.674,6.674,0,0,1,9.418-.623,6.582,6.582,0,0,1,.63.631,33.576,33.576,0,0,0,3.058,3.013,32.643,32.643,0,0,0,10.646,6.152,35.24,35.24,0,0,0,3.628,1.084,2.106,2.106,0,0,0,2.555-2.106V131.5a2.147,2.147,0,0,0-1.587-2.1l-4.319-1.082c-7.949-1.863-13.956-4.9-17.974-9.043a21.5,21.5,0,0,1-6.05-15.575,26.7,26.7,0,0,1,4.244-14.752,29.373,29.373,0,0,1,12.167-10.474,38.3,38.3,0,0,1,11.664-3.386,2.154,2.154,0,0,0,1.856-2.14V66.241a5.783,5.783,0,0,1,1.622-4.035,5.472,5.472,0,0,1,3.925-1.673,5.623,5.623,0,0,1,5.536,5.708v6.775a2.147,2.147,0,0,0,1.841,2.14,39.611,39.611,0,0,1,13.191,4.209,38.268,38.268,0,0,1,11.2,9.2,6.9,6.9,0,0,1-.312,9.175,6.4,6.4,0,0,1-9.05.154,6.227,6.227,0,0,1-.45-.483,27.974,27.974,0,0,0-7.579-6.248,29.241,29.241,0,0,0-6.218-2.538,2.118,2.118,0,0,0-2.623,2.1v25.4a2.148,2.148,0,0,0,1.613,2.1l4.42,1.056a43.791,43.791,0,0,1,13.538,5.041,22.175,22.175,0,0,1,7.975,8.014,23.309,23.309,0,0,1,2.671,11.573,25.691,25.691,0,0,1-4.536,15.194,29.149,29.149,0,0,1-12.52,9.954,41.767,41.767,0,0,1-11.371,3.05,2.113,2.113,0,0,0-1.791,2.128v6.982a5.777,5.777,0,0,1-1.622,4.037,5.434,5.434,0,0,1-3.915,1.674,5.634,5.634,0,0,1-5.543-5.718Zm11.083-45.9v21.6a2.12,2.12,0,0,0,2.081,2.159,2.034,2.034,0,0,0,.382-.028,21.168,21.168,0,0,0,7.747-2.98,11.574,11.574,0,0,0,5.48-10.378,10.033,10.033,0,0,0-3.179-7.777,16.392,16.392,0,0,0-4.056-2.626,34.3,34.3,0,0,0-5.865-2.054,2.085,2.085,0,0,0-2.589,2.09ZM345.409,87.964a20.3,20.3,0,0,0-4.321,1.342,14.616,14.616,0,0,0-6.411,5.04,12.511,12.511,0,0,0-2.084,7.121,11.63,11.63,0,0,0,3.017,8.083q3.026,3.351,12.083,5.57l.151.043V90.085a2.12,2.12,0,0,0-2.054-2.159,1.866,1.866,0,0,0-.379.043Z" fill="#fff"/>
</svg>
