<svg xmlns="http://www.w3.org/2000/svg" width="469" height="468.916" viewBox="0 0 469 468.916">
  <path id="plate_top_up" data-name="plate top up" d="M2083.352,8568.393a5.63,5.63,0,0,1-2.23-4.409v-94.5c0-5.593,5.422-10.137,12.089-10.137h12.821c3.316,0,5.517-1.654,6.222-3.293a3.23,3.23,0,0,0-.815-3.676l-57.731-61.293a8.054,8.054,0,0,0-10.8,0L2033.1,8401.5,2016.42,8419.2l-31.242,33.174a3.22,3.22,0,0,0-.815,3.676c.708,1.639,2.9,3.293,6.222,3.293H2003.4c6.661,0,12.083,4.544,12.083,10.137v94.5c0,3.27-3.03,5.932-6.76,5.932a7.335,7.335,0,0,1-4.538-1.522,5.637,5.637,0,0,1-2.23-4.409V8471.61a1.576,1.576,0,0,0-1.146-.4h-25.99c-5.153,0-9.622-2.624-11.375-6.686a8.82,8.82,0,0,1,1.884-9.745l51.094-54.246,16.683-17.714,5.715-6.067a13.625,13.625,0,0,1,18.974,0l73.492,78.027a8.787,8.787,0,0,1,1.875,9.745c-1.744,4.062-6.205,6.686-11.367,6.686h-20.667c-3.508,0-6.476,2.068-6.476,4.529v88.241c0,3.27-3.031,5.932-6.762,5.932A7.329,7.329,0,0,1,2083.352,8568.393Zm-220.6-26.452a4.6,4.6,0,0,1-1.811-3.59v-76.875c0-4.547,4.409-8.246,9.833-8.246H1881.2a7.585,7.585,0,0,0,1.4-.127v0a4.858,4.858,0,0,0,3.654-2.549,2.63,2.63,0,0,0-.665-2.994l-3.054-3.241-43.908-46.617a6.556,6.556,0,0,0-8.784,0l-46.969,49.858a2.632,2.632,0,0,0-.66,2.994c.574,1.336,2.362,2.68,5.061,2.68h10.427c5.42,0,9.829,3.7,9.829,8.246v76.875c0,2.66-2.467,4.826-5.5,4.826a5.968,5.968,0,0,1-3.695-1.236,4.589,4.589,0,0,1-1.811-3.59v-75.146a1.3,1.3,0,0,0-.936-.325h-21.138c-4.2,0-7.831-2.131-9.257-5.435a7.175,7.175,0,0,1,1.533-7.93l59.785-63.474a11.088,11.088,0,0,1,15.436,0l40.585,43.091,11.005,11.681,8.194,8.7a7.157,7.157,0,0,1,1.527,7.93c-1.419,3.3-5.052,5.435-9.25,5.435h-16.81c-2.856,0-5.267,1.685-5.267,3.685v71.786c0,2.66-2.467,4.826-5.5,4.826A5.973,5.973,0,0,1,1862.748,8541.94Zm182.017-32.734v-5.046a1.562,1.562,0,0,0-1.385-1.54,36.74,36.74,0,0,1-6.837-1.476,32.782,32.782,0,0,1-9.939-5.084,30.81,30.81,0,0,1-4.114-3.745,4.951,4.951,0,0,1-1.3-3.361,5.076,5.076,0,0,1,8.805-3.445,25.683,25.683,0,0,0,2.269,2.177,24.647,24.647,0,0,0,7.906,4.428,27.7,27.7,0,0,0,2.693.779,1.558,1.558,0,0,0,1.9-1.515V8473.41a1.547,1.547,0,0,0-1.185-1.508l-3.2-.778a35.541,35.541,0,0,1-7.276-2.415,20.773,20.773,0,0,1-6.067-4.1,15.21,15.21,0,0,1-4.493-11.223,18.821,18.821,0,0,1,3.153-10.62,20.9,20.9,0,0,1,7.407-6.7c.523-.293,1.063-.57,1.624-.839a28.977,28.977,0,0,1,8.661-2.439,1.567,1.567,0,0,0,1.376-1.544v-4.822a4.11,4.11,0,1,1,8.22,0v4.876a1.571,1.571,0,0,0,1.37,1.544,29.718,29.718,0,0,1,9.79,3.03,28.208,28.208,0,0,1,8.315,6.616,4.84,4.84,0,0,1-7.282,6.377,20.455,20.455,0,0,0-5.622-4.5,21.548,21.548,0,0,0-4.616-1.824,1.555,1.555,0,0,0-1.955,1.508v18.281a1.559,1.559,0,0,0,1.2,1.517l3.284.761a33.151,33.151,0,0,1,10.046,3.631,16.153,16.153,0,0,1,5.921,5.769,16.374,16.374,0,0,1,1.985,8.336,18.109,18.109,0,0,1-3.368,10.937,21.618,21.618,0,0,1-9.291,7.169,31.816,31.816,0,0,1-8.437,2.191,1.542,1.542,0,0,0-1.34,1.54v5.022a4.11,4.11,0,1,1-8.22,0Zm8.22-33.051v15.552a1.561,1.561,0,0,0,1.83,1.531,16.1,16.1,0,0,0,5.753-2.138,8.307,8.307,0,0,0,4.069-7.477,7.144,7.144,0,0,0-2.353-5.606,12.219,12.219,0,0,0-3.024-1.884,25.486,25.486,0,0,0-4.351-1.484,1.587,1.587,0,0,0-.373-.045A1.553,1.553,0,0,0,2052.986,8476.155Zm-10.038-34.088a15.725,15.725,0,0,0-3.2.961,10.872,10.872,0,0,0-4.762,3.631,8.876,8.876,0,0,0-1.544,5.132,8.227,8.227,0,0,0,2.237,5.82q2.239,2.413,8.975,4.015l.11.024V8443.6a1.555,1.555,0,0,0-1.53-1.56A1.532,1.532,0,0,0,2042.948,8442.067Zm-211.588,51.726v-4.105a1.272,1.272,0,0,0-1.127-1.252,30.362,30.362,0,0,1-5.562-1.2,26.691,26.691,0,0,1-8.083-4.132,25.6,25.6,0,0,1-3.349-3.05,4.031,4.031,0,0,1-1.056-2.733,4.129,4.129,0,0,1,7.164-2.8,20.154,20.154,0,0,0,1.848,1.767,19.911,19.911,0,0,0,6.429,3.6,21.693,21.693,0,0,0,2.192.632,1.26,1.26,0,0,0,1.544-1.232v-14.614a1.268,1.268,0,0,0-.959-1.229l-2.609-.632c-4.8-1.093-8.429-2.869-10.855-5.3a12.383,12.383,0,0,1-3.652-9.121,15.284,15.284,0,0,1,2.562-8.642,17.583,17.583,0,0,1,7.347-6.137,23.713,23.713,0,0,1,7.044-1.982,1.278,1.278,0,0,0,1.123-1.254v-3.93a3.347,3.347,0,0,1,6.693,0v3.971a1.271,1.271,0,0,0,1.11,1.254,24.433,24.433,0,0,1,7.966,2.465,22.954,22.954,0,0,1,6.764,5.39,3.936,3.936,0,0,1-5.927,5.179,16.731,16.731,0,0,0-4.577-3.656,17.768,17.768,0,0,0-3.755-1.488,1.266,1.266,0,0,0-1.581,1.229v14.879a1.26,1.26,0,0,0,.972,1.226l2.669.619a27.069,27.069,0,0,1,8.175,2.953,13.18,13.18,0,0,1,4.816,4.7,13.318,13.318,0,0,1,1.613,6.779,14.729,14.729,0,0,1-2.738,8.9,17.505,17.505,0,0,1-7.562,5.831,25.806,25.806,0,0,1-6.865,1.785,1.251,1.251,0,0,0-1.08,1.25v4.088a3.347,3.347,0,0,1-6.693,0Zm6.693-26.889v12.651a1.264,1.264,0,0,0,1.486,1.247,13.06,13.06,0,0,0,4.678-1.744,6.729,6.729,0,0,0,3.308-6.08,5.785,5.785,0,0,0-1.919-4.556,9.864,9.864,0,0,0-2.45-1.538,21.084,21.084,0,0,0-3.542-1.2,1.286,1.286,0,0,0-.307-.038A1.259,1.259,0,0,0,1838.053,8466.9Zm-8.166-27.729a12.365,12.365,0,0,0-2.607.787,8.768,8.768,0,0,0-3.874,2.953,7.169,7.169,0,0,0-1.258,4.17,6.7,6.7,0,0,0,1.822,4.734q1.829,1.964,7.3,3.263l.093.025v-14.689a1.26,1.26,0,0,0-1.243-1.266A1.241,1.241,0,0,0,1829.887,8439.175Zm66.74-11.743v-78.721a1.964,1.964,0,0,0-1.415-.492H1863.17c-6.36,0-11.868-3.23-14.029-8.237a10.875,10.875,0,0,1,2.325-12.021l90.618-96.213a16.809,16.809,0,0,1,23.4,0l90.62,96.213a10.856,10.856,0,0,1,2.314,12.021c-2.153,5.007-7.659,8.237-14.021,8.237h-25.482c-4.329,0-7.984,2.553-7.984,5.586v19.789l-16.681,17.711v-45.218c0-6.891,6.682-12.5,14.907-12.5h15.813c4.084,0,6.8-2.039,7.667-4.063a3.984,3.984,0,0,0-1.007-4.538l-71.184-75.573a9.93,9.93,0,0,0-13.313,0l-71.19,75.573a3.985,3.985,0,0,0-1,4.538c.871,2.024,3.579,4.063,7.67,4.063h15.806c8.214,0,14.9,5.6,14.9,12.5v99.052Zm52.786-32.358v-6.22a1.925,1.925,0,0,0-1.708-1.9,45.856,45.856,0,0,1-8.429-1.822,40.508,40.508,0,0,1-12.253-6.263,39,39,0,0,1-5.076-4.622,6.114,6.114,0,0,1-1.6-4.145,6.258,6.258,0,0,1,10.859-4.245,30.075,30.075,0,0,0,12.546,8.136,32.152,32.152,0,0,0,3.323.964,1.911,1.911,0,0,0,2.338-1.869v-22.153a1.915,1.915,0,0,0-1.454-1.86l-3.953-.961q-10.914-2.481-16.451-8.031a18.776,18.776,0,0,1-5.538-13.827,23.175,23.175,0,0,1,3.884-13.1,26.655,26.655,0,0,1,11.137-9.3,35.985,35.985,0,0,1,10.676-3.007,1.932,1.932,0,0,0,1.7-1.9v-5.954a5.074,5.074,0,0,1,10.147,0v6.016a1.921,1.921,0,0,0,1.684,1.9,37.021,37.021,0,0,1,12.072,3.74,34.812,34.812,0,0,1,10.255,8.167,5.966,5.966,0,0,1-8.984,7.852,25.406,25.406,0,0,0-6.938-5.544,26.992,26.992,0,0,0-5.691-2.254,1.919,1.919,0,0,0-2.4,1.862v22.551a1.914,1.914,0,0,0,1.475,1.86l4.046.938a40.958,40.958,0,0,1,12.391,4.479,19.972,19.972,0,0,1,7.3,7.114,20.184,20.184,0,0,1,2.445,10.276,22.328,22.328,0,0,1-4.153,13.489,26.555,26.555,0,0,1-11.461,8.838,39.212,39.212,0,0,1-10.405,2.708,1.89,1.89,0,0,0-1.637,1.891v6.2a5.074,5.074,0,0,1-10.147,0Zm10.147-40.755v19.174a1.918,1.918,0,0,0,2.252,1.891,19.721,19.721,0,0,0,7.091-2.646,10.193,10.193,0,0,0,5.016-9.214,8.781,8.781,0,0,0-2.908-6.906,15.017,15.017,0,0,0-3.714-2.329,31.931,31.931,0,0,0-5.368-1.824,1.9,1.9,0,0,0-2.368,1.854Zm-12.378-42.034a18.963,18.963,0,0,0-3.951,1.193,13.3,13.3,0,0,0-5.872,4.476,10.869,10.869,0,0,0-1.908,6.323,10.142,10.142,0,0,0,2.761,7.175q2.771,2.978,11.061,4.944l.138.039V8314.17a1.912,1.912,0,0,0-1.883-1.919A1.839,1.839,0,0,0,1947.183,8312.284Zm90.962-12.927a17.438,17.438,0,0,0-1.25-11.53h99.9a16.682,16.682,0,0,0,16.673-16.666V8130.2a16.68,16.68,0,0,0-16.673-16.667H1725.2a16.674,16.674,0,0,0-16.664,16.667v140.963a16.676,16.676,0,0,0,16.664,16.666h152.278a17.473,17.473,0,0,0-1.247,11.53H1725.2a28.222,28.222,0,0,1-28.2-28.2V8130.2a28.226,28.226,0,0,1,28.2-28.2h411.6a28.233,28.233,0,0,1,28.2,28.2v140.963a28.229,28.229,0,0,1-28.2,28.2Zm-24.263-37.285-7.665-8.139h117.135v8.139Zm-275.236,0v-8.139h169.521l-7.665,8.139Zm361.107-41.323q-5.81-11.253-5.8-33.235t5.8-33.238q5.81-11.252,16.72-11.252,10.827,0,16.632,11.252t5.807,33.238q0,21.986-5.807,33.235T2116.474,8232Q2105.557,8232,2099.754,8220.749Zm8.865-10.466q2.523,7.2,7.854,7.2,5.239,0,7.766-7.2t2.538-22.77q0-15.566-2.538-22.771t-7.766-7.2q-5.329,0-7.861,7.2h.007q-2.533,7.2-2.536,22.771T2108.619,8210.283Zm-63.17,10.466h.006q-5.807-11.253-5.8-33.235t5.8-33.238q5.8-11.252,16.714-11.252,10.827,0,16.632,11.252t5.807,33.238q0,21.986-5.807,33.235T2062.169,8232Q2051.262,8232,2045.449,8220.749Zm8.865-10.466q2.532,7.2,7.854,7.2,5.239,0,7.773-7.2t2.531-22.77q0-15.566-2.531-22.771t-7.773-7.2q-5.32,0-7.854,7.2t-2.529,22.771Q2051.785,8203.079,2054.315,8210.283Zm-63.164,10.466q-5.807-11.253-5.8-33.235t5.8-33.238q5.81-11.252,16.72-11.252,10.827,0,16.632,11.252t5.807,33.238q0,21.986-5.807,33.235T2007.871,8232Q1996.954,8232,1991.151,8220.749Zm8.865-10.466q2.523,7.2,7.855,7.2,5.242,0,7.766-7.2t2.538-22.77q0-15.566-2.538-22.771-2.523-7.194-7.766-7.2-5.329,0-7.861,7.2h.006q-2.532,7.2-2.536,22.771T2000.016,8210.283ZM1869.5,8230.694l-4.626-21.2h-21.129l-4.633,21.2h-12.3l20.335-86.362h14.582l20.344,86.362Zm-7.252-34.41-7.943-37.823-7.943,37.823Zm-49.936,34.41-4.633-21.2h-21.123l-4.633,21.2h-12.3l20.344-86.362h14.576l20.342,86.362Zm-7.244-34.41-7.943-37.823-7.943,37.823Zm-81.105,34.41v-12.162q7.42-7.853,12.657-14.265a93.629,93.629,0,0,0,8.513-12.04,50.48,50.48,0,0,0,4.8-10.663,34.067,34.067,0,0,0,1.527-10.012,18.963,18.963,0,0,0-2.314-9.883,7.3,7.3,0,0,0-6.592-3.858q-4.446,0-7.067,4.97t-2.884,14.137l-10.472-5.631a42.528,42.528,0,0,1,3.1-15.445,22.124,22.124,0,0,1,7.42-9.551,18.011,18.011,0,0,1,10.6-3.269,17.08,17.08,0,0,1,11.442,3.86,22.858,22.858,0,0,1,6.723,10.141,40.868,40.868,0,0,1,2.178,13.262c0,.072,0,.143,0,.215s0,.168,0,.252a46.291,46.291,0,0,1-2.706,15.52,57.6,57.6,0,0,1-8.207,14.916,130.017,130.017,0,0,1-13.7,15.375v.13c.813-.08,1.83-.148,3.052-.2l3.8-.129c1.31-.047,2.435-.066,3.364-.066h15.277v14.393Zm212.885-9.945h.006q-5.807-11.253-5.8-33.235t5.8-33.238q5.8-11.252,16.714-11.252,10.827,0,16.632,11.252t5.807,33.238q0,18.905-4.293,29.872a21.029,21.029,0,0,0-11.111-5.263c.258-.57.508-1.182.74-1.84q2.533-7.2,2.529-22.77t-2.529-22.771q-2.536-7.194-7.775-7.2-5.329,0-7.861,7.2h.006q-2.533,7.2-2.529,22.771t2.529,22.77a16.352,16.352,0,0,0,1.839,3.779,19.9,19.9,0,0,0-5.874,4.293l-3.874,4.11C1937.47,8221.917,1937.152,8221.348,1936.846,8220.749Zm-48.4-17.14v-15.444h30.728v15.444Z" transform="translate(-1696.499 -8101.499)" fill="#fff" stroke="rgba(0,0,0,0)" stroke-miterlimit="10" stroke-width="1"/>
</svg>
